<svg width="40" height="40" viewBox="0 0 40 40" fill="none" xmlns="http://www.w3.org/2000/svg">
<g id="icon">
<rect id="Rectangle 20" y="16.6667" width="23.3333" height="23.3333" fill="#7595FD"/>
<path id="Vector" d="M18.3333 10.0001H23.3333L28.8166 4.50008C28.9716 4.34386 29.1559 4.21987 29.359 4.13526C29.5621 4.05064 29.7799 4.00708 30 4.00708C30.22 4.00708 30.4378 4.05064 30.6409 4.13526C30.844 4.21987 31.0284 4.34386 31.1833 4.50008L35.4833 8.81674C35.7937 9.12901 35.968 9.55143 35.968 9.99174C35.968 10.4321 35.7937 10.8545 35.4833 11.1667L31.6666 15.0001H18.3333V18.3334C18.3333 18.7754 18.1577 19.1994 17.8451 19.5119C17.5326 19.8245 17.1087 20.0001 16.6666 20.0001C16.2246 20.0001 15.8007 19.8245 15.4881 19.5119C15.1756 19.1994 15 18.7754 15 18.3334V13.3334C15 12.4494 15.3512 11.6015 15.9763 10.9764C16.6014 10.3513 17.4492 10.0001 18.3333 10.0001ZM8.3333 18.3334V25.0001L4.51664 28.8167C4.20622 29.129 4.03198 29.5514 4.03198 29.9917C4.03198 30.4321 4.20622 30.8545 4.51664 31.1667L8.81664 35.4834C8.97157 35.6396 9.15591 35.7636 9.35901 35.8482C9.56211 35.9328 9.77995 35.9764 9.99997 35.9764C10.22 35.9764 10.4378 35.9328 10.6409 35.8482C10.844 35.7636 11.0284 35.6396 11.1833 35.4834L18.3333 28.3334H25C25.442 28.3334 25.8659 28.1578 26.1785 27.8453C26.491 27.5327 26.6666 27.1088 26.6666 26.6667V25.0001H28.3333C28.7753 25.0001 29.1993 24.8245 29.5118 24.5119C29.8244 24.1994 30 23.7754 30 23.3334V21.6667H31.6666C32.1087 21.6667 32.5326 21.4911 32.8451 21.1786C33.1577 20.866 33.3333 20.4421 33.3333 20.0001V18.3334H21.6666V20.0001C21.6666 20.8841 21.3154 21.732 20.6903 22.3571C20.0652 22.9822 19.2174 23.3334 18.3333 23.3334H15C14.1159 23.3334 13.2681 22.9822 12.6429 22.3571C12.0178 21.732 11.6666 20.8841 11.6666 20.0001V15.0001L8.3333 18.3334Z" fill="#292E3D"/>
</g>
</svg>
