<svg width="41" height="40" viewBox="0 0 41 40" fill="none" xmlns="http://www.w3.org/2000/svg">
<g id="icon" clip-path="url(#clip0_192_29)">
<rect id="Rectangle 20" x="0.5" y="16.6667" width="23.3333" height="23.3333" fill="#7595FD"/>
<path id="Vector" d="M32.1517 3.33325H15.5167C13.665 3.33325 12.1667 4.83159 12.1667 6.68325V16.0783L4.33001 23.8149C4.0952 24.0471 3.93468 24.3439 3.86881 24.6675C3.80295 24.9911 3.83471 25.327 3.96006 25.6326C4.08542 25.9381 4.29872 26.1995 4.5729 26.3836C4.84707 26.5677 5.16976 26.6662 5.50001 26.6666V34.9999C5.50001 35.4419 5.6756 35.8659 5.98816 36.1784C6.30072 36.491 6.72465 36.6666 7.16668 36.6666H33.8333C34.2754 36.6666 34.6993 36.491 35.0119 36.1784C35.3244 35.8659 35.5 35.4419 35.5 34.9999V6.68159C35.5 4.83159 34.0033 3.33325 32.1517 3.33325ZM18.7033 25.1849V33.3333H8.83334V24.0533L13.8117 19.1383L18.7033 24.1433V25.1849ZM22.1667 14.9999H18.8333V11.6666H22.1667V14.9999ZM28.8333 28.3333H25.5V24.9999H28.8333V28.3333ZM28.8333 21.6666H25.5V18.3333H28.8333V21.6666ZM28.8333 14.9999H25.5V11.6666H28.8333V14.9999Z" fill="#292E3D"/>
<path id="Vector_2" d="M12.1666 25H15.5V28.3333H12.1666V25Z" fill="#14171F"/>
</g>
<defs>
<clipPath id="clip0_192_29">
<rect width="40" height="40" fill="white" transform="translate(0.5)"/>
</clipPath>
</defs>
</svg>
