<svg width="40" height="40" viewBox="0 0 40 40" fill="none" xmlns="http://www.w3.org/2000/svg">
<g id="icon">
<rect id="Rectangle 20" y="16.6665" width="23.3333" height="23.3333" fill="#7595FD"/>
<path id="Vector" d="M35 23.3333C35 22.4167 34.25 21.6667 33.3334 21.6667H30V25H33.3334C34.25 25 35 24.25 35 23.3333ZM33.3334 28.3333H30V31.6667H33.3334C34.25 31.6667 35 30.9167 35 30C35 29.0833 34.25 28.3333 33.3334 28.3333ZM20 23.3333H16.6667V30H20C20 31.8333 21.5 33.3333 23.3334 33.3333H28.3334V20H23.3334C21.5 20 20 21.5 20 23.3333Z" fill="white"/>
<path id="Vector_2" d="M8.33333 21.6665C8.33333 19.8332 9.83333 18.3332 11.6667 18.3332H14.1667C17.3833 18.3332 20 15.7165 20 12.4998C20 9.28317 17.3833 6.6665 14.1667 6.6665H8.33333C7.41667 6.6665 6.66667 7.4165 6.66667 8.33317C6.66667 9.24984 7.41667 9.99984 8.33333 9.99984H14.1667C15.55 9.99984 16.6667 11.1165 16.6667 12.4998C16.6667 13.8832 15.55 14.9998 14.1667 14.9998H11.6667C7.98333 14.9998 5 17.9832 5 21.6665C5 25.3498 7.98333 28.3332 11.6667 28.3332H15V24.9998H11.6667C9.83333 24.9998 8.33333 23.4998 8.33333 21.6665Z" fill="white"/>
</g>
</svg>
