<svg width="41" height="40" viewBox="0 0 41 40" fill="none" xmlns="http://www.w3.org/2000/svg">
<g id="icon" clip-path="url(#clip0_192_51)">
<rect id="Rectangle 20" x="0.5" y="16.6667" width="23.3333" height="23.3333" fill="#7595FD"/>
<path id="Vector" d="M33 4.99992C31.8952 5.0008 30.8359 5.44007 30.0547 6.22128C29.2735 7.00249 28.8342 8.06179 28.8333 9.16659C28.8333 9.76159 28.9633 10.3266 29.19 10.8416L25.9317 14.5066C24.8248 13.7426 23.5116 13.3333 22.1667 13.3333C20.9333 13.3333 19.7933 13.6933 18.8017 14.2766L15.0117 10.4883L14.9733 10.5266C15.3 9.86325 15.5 9.12492 15.5 8.33325C15.5 7.34435 15.2068 6.37765 14.6573 5.5554C14.1079 4.73316 13.327 4.09229 12.4134 3.71386C11.4998 3.33542 10.4945 3.2364 9.52455 3.42933C8.55465 3.62225 7.66373 4.09846 6.96447 4.79772C6.26521 5.49698 5.789 6.3879 5.59608 7.3578C5.40315 8.32771 5.50217 9.33304 5.8806 10.2467C6.25904 11.1603 6.89991 11.9412 7.72215 12.4906C8.5444 13.04 9.5111 13.3333 10.5 13.3333C11.2917 13.3333 12.0283 13.1333 12.6933 12.8066L12.655 12.8449L16.445 16.6333C15.8327 17.65 15.5063 18.8131 15.5 19.9999C15.5 21.6616 16.1333 23.1649 17.1417 24.3349L12.8467 28.6283C12.3653 28.4356 11.8518 28.3355 11.3333 28.3333C9.03667 28.3333 7.16667 30.2016 7.16667 32.4999C7.16667 34.7983 9.03667 36.6666 11.3333 36.6666C13.63 36.6666 15.5 34.7983 15.5 32.4999C15.5 31.9649 15.39 31.4566 15.205 30.9849L19.935 26.2549C20.6367 26.5049 21.38 26.6666 22.1667 26.6666C25.8433 26.6666 28.8333 23.6766 28.8333 19.9999C28.8333 18.9399 28.5617 17.9516 28.12 17.0599L31.6483 13.0883C32.075 13.2349 32.525 13.3333 33 13.3333C35.2983 13.3333 37.1667 11.4649 37.1667 9.16659C37.1667 6.86825 35.2983 4.99992 33 4.99992ZM22.1667 23.3333C20.3283 23.3333 18.8333 21.8383 18.8333 19.9999C18.8333 18.1616 20.3283 16.6666 22.1667 16.6666C24.005 16.6666 25.5 18.1616 25.5 19.9999C25.5 21.8383 24.005 23.3333 22.1667 23.3333Z" fill="white"/>
</g>
<defs>
<clipPath id="clip0_192_51">
<rect width="40" height="40" fill="white" transform="translate(0.5)"/>
</clipPath>
</defs>
</svg>
